<svg height="480pt" viewBox="-64 0 480 480" width="480pt" xmlns="http://www.w3.org/2000/svg"><path d="m343.367188 349.058594-7.367188-6.140625v-318.917969c-.015625-13.25-10.75-23.984375-24-24h-256c-10.136719.03125-19.15625 6.4375-22.527344 16h-9.472656c-13.25.015625-23.984375 10.75-24 24v416c.015625 13.25 10.75 23.984375 24 24h304c13.25-.015625 23.984375-10.75 24-24v-88.507812c.007812-7.125-3.15625-13.878907-8.632812-18.433594zm-287.367188-333.058594h256c4.417969.003906 7.996094 3.582031 8 8v305.585938l-16-13.332032v-228.253906c-.015625-13.25-10.75-23.984375-24-24h-232v-40c.003906-4.417969 3.582031-7.996094 8-8zm-40 24c.003906-4.417969 3.582031-7.996094 8-8h8v32h-16zm320 416c-.003906 4.417969-3.582031 7.996094-8 8h-304c-4.417969-.003906-7.996094-3.582031-8-8v-376h264c4.417969.003906 7.996094 3.582031 8 8v235.746094l45.125 37.605468c1.824219 1.515626 2.878906 3.769532 2.875 6.140626zm0 0"/><path d="m112 352v-16c-.011719-8.832031-7.167969-15.988281-16-16h-16c-8.832031.011719-15.988281 7.167969-16 16v16c.011719 8.832031 7.167969 15.988281 16 16h16c8.832031-.011719 15.988281-7.167969 16-16zm-32-16h16l.007812 16h-16.007812zm0 0"/><path d="m128 320h16v16h-16zm0 0"/><path d="m224 320h16v16h-16zm0 0"/><path d="m160 320h48v16h-48zm0 0"/><path d="m128 352h16v16h-16zm0 0"/><path d="m224 352h16v16h-16zm0 0"/><path d="m160 352h48v16h-48zm0 0"/><path d="m224 384h-16c-8.832031.011719-15.988281 7.167969-16 16v16c.011719 8.832031 7.167969 15.988281 16 16h16c8.832031-.011719 15.988281-7.167969 16-16v-16c-.011719-8.832031-7.167969-15.988281-16-16zm0 32h-16v-16h16zm0 0"/><path d="m160 384h16v16h-16zm0 0"/><path d="m64 384h16v16h-16zm0 0"/><path d="m96 384h48v16h-48zm0 0"/><path d="m160 416h16v16h-16zm0 0"/><path d="m64 416h16v16h-16zm0 0"/><path d="m96 416h48v16h-48zm0 0"/><path d="m80 136c.003906-4.417969 3.582031-7.996094 8-8h16v-16h-16c-13.25.015625-23.984375 10.75-24 24v16h16zm0 0"/><path d="m88 288h16v-16h-16c-4.417969-.003906-7.996094-3.582031-8-8v-16h-16v16c.015625 13.25 10.75 23.984375 24 24zm0 0"/><path d="m224 264c-.003906 4.417969-3.582031 7.996094-8 8h-16v16h16c13.25-.015625 23.984375-10.75 24-24v-16h-16zm0 0"/><path d="m216 112h-16v16h16c4.417969.003906 7.996094 3.582031 8 8v16h16v-16c-.015625-13.25-10.75-23.984375-24-24zm0 0"/><path d="m192 176v-8c-.011719-8.832031-7.167969-15.988281-16-16h-16v-16h-16v16h-16c-8.832031.011719-15.988281 7.167969-16 16v24c.011719 8.832031 7.167969 15.988281 16 16h16v24h-16v-8h-16v8c.011719 8.832031 7.167969 15.988281 16 16h16v16h16v-16h16c8.832031-.011719 15.988281-7.167969 16-16v-24c-.011719-8.832031-7.167969-15.988281-16-16h-16v-24h16v8zm-16 32v24h-16v-24zm-32-16h-16v-24h16zm0 0"/></svg>