<?xml version="1.0"?>
<svg xmlns="http://www.w3.org/2000/svg" viewBox="0 0 64 64" width="512" height="512"><g id="box-startup"><path d="M61.769,30.36l-5-6a1.008,1.008,0,0,0-.529-.323l0-.007L47,21.719V18h2a1,1,0,0,0,.707-1.707l-5-5a1,1,0,0,0-1.414,0l-5,5A1,1,0,0,0,39,18h2v2.219l-5-1.25V12h4a1,1,0,0,0,.707-1.707l-8-8a1,1,0,0,0-1.414,0l-8,8A1,1,0,0,0,24,12h4v6.969l-5,1.25V18h2a1,1,0,0,0,.707-1.707l-5-5a1,1,0,0,0-1.414,0l-5,5A1,1,0,0,0,15,18h2v3.719L7.758,24.03l0,.008a1.007,1.007,0,0,0-.529.322l-5,6A1,1,0,0,0,2.8,31.979l4.2.876V54a1,1,0,0,0,.72.96l24,7v-.005A1.017,1.017,0,0,0,32,62a1,1,0,0,0,.28-.04l24-7A1,1,0,0,0,57,54V32.855l4.2-.876a1,1,0,0,0,.565-1.619ZM51.093,24.8,47,25.486V23.781ZM41,22.281V23H36V21.031Zm-13-1.25V23H23v-.719Zm-8-7.617L22.586,16H22a1,1,0,0,0-1,1v7a1,1,0,0,0,1,1h7a1,1,0,0,0,1-1V11a1,1,0,0,0-1-1H26.414L32,4.414,37.586,10H35a1,1,0,0,0-1,1V24a1,1,0,0,0,1,1h7a1,1,0,0,0,1-1V17a1,1,0,0,0-1-1h-.586L44,13.414,46.586,16H46a1,1,0,0,0-1,1v8.82L32,27.986,19,25.82V17a1,1,0,0,0-1-1h-.586ZM17,25.486,12.907,24.8,17,23.781Zm-8.6.595,22.033,3.672-3.853,5.138L4.834,30.361ZM55,53.25,33,59.667V36.77H31v22.9L9,53.25V33.272l17.8,3.707A1.017,1.017,0,0,0,27,37a1,1,0,0,0,.8-.4L31,32.331V35h2V32.331L36.2,36.6a1,1,0,0,0,.8.4,1.017,1.017,0,0,0,.2-.021L55,33.272ZM37.419,34.891l-3.853-5.138L55.6,26.081l3.567,4.28Z"/></g></svg>
