<svg xmlns="http://www.w3.org/2000/svg" width="500" height="500" viewBox="0 0 500 500"><rect x="0" y="0" width="500" height="500" fill="#271b59"/><g transform="translate(154,303)translate(96,32.5)rotate(0)translate(-96,-32.5)" opacity="1"><path transform="translate(6,0)rotate(0)" d="M3.61 13.39L11.04 39.62L11.13 40.86L11.23 39.62L18.68 13.39L21.80 13.39L11.91 47L10.31 47L0.47 13.39L3.61 13.39ZM54.62 47L35.71 47L35.71 13.39L54.62 13.39L54.62 16.27L38.73 16.27L38.73 28.77L51.60 28.77L51.60 31.65L38.73 31.65L38.73 44.12L54.62 44.12L54.62 47ZM73.01 47L69.99 47L69.99 13.39L73.01 13.39L73.01 47ZM105.14 47L102.91 39.17L92.27 39.17L90.07 47L86.93 47L96.77 13.39L98.36 13.39L108.25 47L105.14 47ZM97.50 20.80L93.09 36.29L102.11 36.29L97.68 20.80L97.59 19.55L97.50 20.80ZM140.59 39.22L140.59 39.22L140.59 39.22Q140.59 40.93 139.94 42.43L139.94 42.43L139.94 42.43Q139.30 43.93 138.17 45.05L138.17 45.05L138.17 45.05Q137.05 46.18 135.55 46.82L135.55 46.82L135.55 46.82Q134.05 47.47 132.34 47.47L132.34 47.47L129.95 47.47L129.95 47.47Q128.24 47.47 126.72 46.82L126.72 46.82L126.72 46.82Q125.21 46.18 124.09 45.05L124.09 45.05L124.09 45.05Q122.96 43.93 122.32 42.43L122.32 42.43L122.32 42.43Q121.67 40.93 121.67 39.22L121.67 39.22L121.67 21.17L121.67 21.17Q121.67 19.46 122.32 17.96L122.32 17.96L122.32 17.96Q122.96 16.46 124.09 15.34L124.09 15.34L124.09 15.34Q125.21 14.21 126.72 13.57L126.72 13.57L126.72 13.57Q128.24 12.92 129.95 12.92L129.95 12.92L132.34 12.92L132.34 12.92Q134.05 12.92 135.55 13.57L135.55 13.57L135.55 13.57Q137.05 14.21 138.17 15.34L138.17 15.34L138.17 15.34Q139.30 16.46 139.94 17.96L139.94 17.96L139.94 17.96Q140.59 19.46 140.59 21.17L140.59 21.17L140.59 22.53L137.56 23L137.56 21.17L137.56 21.17Q137.56 20.05 137.14 19.07L137.14 19.07L137.14 19.07Q136.72 18.10 135.99 17.38L135.99 17.38L135.99 17.38Q135.27 16.65 134.29 16.23L134.29 16.23L134.29 16.23Q133.32 15.80 132.20 15.80L132.20 15.80L130.09 15.80L130.09 15.80Q128.96 15.80 127.99 16.23L127.99 16.23L127.99 16.23Q127.02 16.65 126.28 17.38L126.28 17.38L126.28 17.38Q125.54 18.10 125.12 19.07L125.12 19.07L125.12 19.07Q124.70 20.05 124.70 21.17L124.70 21.17L124.70 39.22L124.70 39.22Q124.70 40.34 125.12 41.32L125.12 41.32L125.12 41.32Q125.54 42.29 126.28 43.03L126.28 43.03L126.28 43.03Q127.02 43.77 127.99 44.19L127.99 44.19L127.99 44.19Q128.96 44.61 130.09 44.61L130.09 44.61L132.20 44.61L132.20 44.61Q133.32 44.61 134.29 44.19L134.29 44.19L134.29 44.19Q135.27 43.77 135.99 43.03L135.99 43.03L135.99 43.03Q136.72 42.29 137.14 41.32L137.14 41.32L137.14 41.32Q137.56 40.34 137.56 39.22L137.56 39.22L137.56 37.39L140.59 37.88L140.59 39.22ZM175.34 39.22L175.34 39.22L175.34 39.22Q175.34 40.93 174.69 42.43L174.69 42.43L174.69 42.43Q174.05 43.93 172.92 45.05L172.92 45.05L172.92 45.05Q171.80 46.18 170.30 46.82L170.30 46.82L170.30 46.82Q168.80 47.47 167.09 47.47L167.09 47.47L164.70 47.47L164.70 47.47Q162.98 47.47 161.47 46.82L161.47 46.82L161.47 46.82Q159.96 46.18 158.84 45.05L158.84 45.05L158.84 45.05Q157.71 43.93 157.07 42.43L157.07 42.43L157.07 42.43Q156.42 40.93 156.42 39.22L156.42 39.22L156.42 21.17L156.42 21.17Q156.42 19.46 157.07 17.96L157.07 17.96L157.07 17.96Q157.71 16.46 158.84 15.34L158.84 15.34L158.84 15.34Q159.96 14.21 161.47 13.57L161.47 13.57L161.47 13.57Q162.98 12.92 164.70 12.92L164.70 12.92L167.09 12.92L167.09 12.92Q168.80 12.92 170.30 13.57L170.30 13.57L170.30 13.57Q171.80 14.21 172.92 15.34L172.92 15.34L172.92 15.34Q174.05 16.46 174.69 17.96L174.69 17.96L174.69 17.96Q175.34 19.46 175.34 21.17L175.34 21.17L175.34 39.22ZM172.31 39.22L172.31 21.17L172.31 21.17Q172.31 20.05 171.89 19.07L171.89 19.07L171.89 19.07Q171.47 18.10 170.74 17.38L170.74 17.38L170.74 17.38Q170.02 16.65 169.04 16.23L169.04 16.23L169.04 16.23Q168.07 15.80 166.95 15.80L166.95 15.80L164.84 15.80L164.84 15.80Q163.71 15.80 162.74 16.23L162.74 16.23L162.74 16.23Q161.77 16.65 161.03 17.38L161.03 17.38L161.03 17.38Q160.29 18.10 159.87 19.07L159.87 19.07L159.87 19.07Q159.45 20.05 159.45 21.17L159.45 21.17L159.45 39.22L159.45 39.22Q159.45 40.34 159.87 41.32L159.87 41.32L159.87 41.32Q160.29 42.29 161.03 43.03L161.03 43.03L161.03 43.03Q161.77 43.77 162.74 44.19L162.74 44.19L162.74 44.19Q163.71 44.61 164.84 44.61L164.84 44.61L166.95 44.61L166.95 44.61Q168.07 44.61 169.04 44.19L169.04 44.19L169.04 44.19Q170.02 43.77 170.74 43.03L170.74 43.03L170.74 43.03Q171.47 42.29 171.89 41.32L171.89 41.32L171.89 41.32Q172.31 40.34 172.31 39.22L172.31 39.22Z" fill="#ffffff"/></g><g transform="translate(159,111)translate(90.5,82)rotate(0)translate(-90.5,-82) scale(1.0826524386596643,1.0826524386596643)" opacity="1"><defs class="defs"/><path fill="#FFFFFF" d="M75.219,136.971L141.746,0h25.436L93.265,152.189h-8.908L154.357,8.047h-7.608L76.961,152.189h-3.695L0,0&#xA;&#9;h42.395l37.396,77.4l-4.572,9.348L37.391,8.047H12.824L75.219,136.971z M75.438,121.969L134.356,0h-9.129L75.438,103.488&#xA;&#9;L32.613,15.004h-8.918L75.438,121.969z" class="color c1"/></g></svg>